<?xml version="1.0" encoding="UTF-8"?>
<svg xmlns="http://www.w3.org/2000/svg" version="1.1" viewBox="0 0 500 500">
  <defs>
    <style>
      .cls-1 {
        fill: #22262d;
      }
    </style>
  </defs>
  <!-- Generator: Adobe Illustrator 28.6.0, SVG Export Plug-In . SVG Version: 1.2.0 Build 709)  -->
  <g>
    <g id="Capa_1">
      <g>
        <path class="cls-1" d="M396.31,421.65c15.75-2.92,20.15-16.94,28.82-26.72,17.43-18.41,31.01-39.94,39.02-63.34,4.96-14.54,18.67-27.21,13.26-44.9,0,0,0-.01-.01-.02,0,0,.02,0,.03.01.23-4.32.47-8.64.7-12.96,0,0,0,0,0,0,12.7-13.52.82-30.33,5.87-44.9.13-.36-1.44-1.28-2.23-1.97-3.54-9.22,5.97-20.35-4.27-28.59-2.36-4.92-2.07-10.47-3.41-15.52-4.96-18.48-9.35-37.48-25.47-50.41-4.17-26.68-23.47-42.63-41.98-59.14-13.78-12.8-25.5-28.13-43.52-35.71-9.16-8.43-21.73-10.4-31.93-16.8-2.56-4-7.15-1.44-10.4-3.28h-.03c-9.68.36-15.62-14.6-27.17-6.6-15.92-1.44-30.52-9.81-47.52-7.38-6.56.95-11.65,6.63-19.4,4-16.15-5.51-30.78,3.71-45.52,7.68-16.38,4.43-31.67,12.87-47.42,19.56v.04s-.01-.01-.02-.02c-5.36.87-7.41,5.47-10.3,9.13,0,0,.01,0,.02,0,0,0,0,0-.01,0-6.1,6.01-17.36,5.84-19.56,16.44-12.79,2.99-17.09,16.31-27.63,22.74-8.43,5.19-14.57,15.2-19.92,24.12-9.09,15.16-20.77,28.62-27.96,45.06-9.58,22.05-11.62,46.44-22.09,68.23-2.13,4.43-3.31,12.44,5.87,14.08-12.18,21.1-1.61,68.07,9.62,88.48,0,0,0,0,0,0,3.35,9.91,6.7,19.82,10.01,29.73,0,0,0,0,.01-.01,0,0,0,0,0,.01.94,1.44,1.89,2.88,2.83,4.32,0-.02.01-.04.02-.06h0v.07c3.05,15.2,16.64,23.5,23.7,35.97,12.31,21.86,32.26,35.05,52.12,48.57,5.28,6.86,13.09,10.4,19.95,15.26,0,0,0,0,0,0,4.16.38,8.33.77,12.49,1.15h0s0,0,0,0c12.15,15.24,29.31,15.18,46.44,15.23,0,0,0,0,0,0,13.02,2.86,25.07,11.71,39.44,6.56,6.63-1.28,13,4.63,19.76.79,0,0,0,0,0-.01,6.49.03,11.89-3.3,19.64-1.63,12.1,2.61,25.85,1.05,36.51-8.29,24.7-1.93,46.16-11.57,64.99-27.42,5.73-3.51,11.47-7.02,17.2-10.52,0-.01-.01-.02-.02-.03.01,0,.02,0,.03.01,3.12-3.84,5.74-10.4,9.45-11.06ZM373.08,398.24c-2.49,3.05-3.74,8.14-9.52,5.74-.16-.23-.3-.46-.43-.66-8.6-13.78,5.68-5.94,9.09-8.4.26-.2.43-.43.56-.72,6.24-5.81,7.29-18.18,19.89-15.79.3-2.95-.16-6.43,1.28-8.66,2.4-3.81,3.02-9.42,8.43-10.63,2.49-.59,3.31,1.31,3.84,3.68,1.28,5.87-.95,9.78-5.94,12.57-.36-.07-.69-.1-1.05-.1.03.16.1.33.16.49-1.54.69-3.12,1.38-4.66,2.07v.03c-.59.23-1.21.53-1.81.79-.03.46-.03.95-.07,1.41-.03,1.05-.07,2.13-.13,3.18,0,.53-.03,1.08-.07,1.61-9.06.75-8.24,15.98-19.59,13.39ZM222.44,418.26c.13.98.26,2,.36,2.99-.46.72-.92,1.41-1.38,2.13-.53.79-1.02,1.58-1.54,2.36-.36.56-.75,1.15-1.12,1.74-3.74.82-3.81,6.63-8.43,6.27-.36-1.08-.59-2.1-.72-3.02-1.41-8.24,4.17-11.19,11.65-12.7.23-.07.49-.1.72-.16-.1-.23-.16-.46-.23-.69-1.61-6.47,2.36-10.17,7.88-11.62,2.82-.72,2.46,2.72,2.63,5.12.03.26.07.53.1.75-2.95,2.82-4.3,8.11-9.91,6.83ZM147.57,369.03c2.63.72,2.33,2.89,2.4,4.82.07,3.02-1.21,5.38-4.4,4.3-1.15-.36-1.81-3.38-1.9-5.22-.1-2.3,1.58-3.61,3.91-3.91ZM110.75,361.81c-.62-.79-1.15-1.54-1.61-2.2-4.2-6.56-.13-7.68,6.27-7.29.49.03.98.07,1.51.13.82,5.02-1.15,8.2-6.17,9.35ZM25.75,251.57c-.03-.13-.07-.26-.1-.39.1.1.16.13.26.16,9.81-14.08,24.48-24.32,32.2-40.11.66-.56,1.31-1.15,1.97-1.71,1.84-1.61,3.68-3.18,5.51-4.76.23-.59.49-1.15.79-1.71,2.49-4.99,6.37-8.73,11.22-11.55-.75-1.94-1.51-3.91-2.3-5.84.59.07,1.15.03,1.71-.1,4.73-.95,8.04-7.19,13.78-4,.56-4.63-1.28-9.81,3.45-13.39h.03c.92.13,1.81.26,2.72.39,1.21.16,2.43.33,3.64.49.03.23.03.46.07.69.56,6.7-.89,11.85-8.63,12.21-.3.03-.59.03-.89.03h-.26v6.3c-2.56,1.35-4.63,3.97-7.78,3.74-.46,0-.95-.1-1.48-.26,7.68,7.75-7.32,11.55-4,18.54.13.33.33.66.56.98-.53,1.58-1.28,2.82-2.86,2.92-.3.03-.66,0-1.05-.07l.46,1.18v.03c-9.29-.89-15.13,2.76-16.34,12.47-7.55,5.58-14.67,11.49-15.98,21.46-.07.46-.13.95-.16,1.44-10.27.1-11.13,12.24-18.44,16.18-5.81-6.96,3.48-10.11,1.9-15.36ZM179.64,86.95c-12.11,12.87-24.22,25.73-36.33,38.6-.59.33-1.15.66-1.67,1.02-5.58,3.97-7.45,10.86-11.42,16.05-3.41,4.53-6.86,6.83-12.01,6.63-.23,0-.49,0-.75-.03,0,.3.03.59.03.85,0,4.43-2.2,7.48-6.79,8.93-.07,1.25-.13,2.53-.16,3.77-.07.85-.1,1.67-.13,2.53-1.71-.2-3.38-.39-5.09-.59-1.28-.13-2.59-.3-3.87-.43,2.3-2.92,4.56-5.84,6.83-8.8-.2-.75-.43-1.51-.62-2.26-.07-.3-.16-.59-.23-.89,2.86-2.2,5.97-3.84,9.75-3.58,3.84-14.97,16.31-23.63,25.73-34.4,5.97-6.76,14.64-11.19,17.07-20.87h.03v-.03c.46-.46.95-.92,1.41-1.38l4.53-4.53h.03l.56-.59h.03c2.86-1.35,5.68-2.72,8.5-4.07,1.21-3.02,2.46-6.07,3.68-9.09-1.05-1.18-2.1-2.4-3.15-3.61.13-1.51.3-2.92.72-4.07.82-2.1,2.53-3.15,6.27-1.74.03.46.07.89.1,1.35.13,1.31.23,2.66.36,4,1.18.79,2.36,1.58,3.51,2.4.89.59,1.77,1.18,2.66,1.81.92,7.35-8.73,6.92-9.55,13.03ZM170.05,162.76c8.24-4.82,12.27-14.34,22.12-18.02,7.65-2.79,12.54-2.59,16.8,3.74,0-8.63,5.02-14.57,12.21-18.02,3.41-1.61,16.54,6.99,20.38,12.96.23,0,.46-.03.72-.1.16-12.54,1.51-22.45,14.34-7.91,1.12,1.25,2.56,2.95,5.22,1.02,15.75-11.32,24.19,7.45,36.46,10.57,5.12,1.31,11.95,6.53,18.9,8.34,2.89-10.37,9.78-18.15,16.77-25.8,0,0,.03,0,.03-.03.1.03.2.1.3.13,0-.1-.07-.16-.1-.26,2.86-2.07,5.68-4.14,8.53-6.2-7.15,10.34-11.32,22.97-21.99,30.29v.03c-1.02.72-2.07,1.38-3.22,1.97t-.07-.07h-.03c-.07-.03-.16-.03-.23-.07-.03.13-.07.23-.1.36.1-.07.23-.13.33-.2-.1.46-.2.89-.23,1.31-.53,4.33,2.56,7.58,5.09,9.91,14.8,13.55,28.09,27.7,28.75,49.49,0,.72,3.54,1.35,5.45,2.03-1.02,2.43-3.41,5.22-2.89,7.25,5.32,20.35-.23,40.5-.46,60.72-10.83,4.1-10.63,16.25-15.1,24.06-12.11,21.33-28.62,35.58-50.44,44.96-6.14,3.35-14.8-.43-19.53,6.92-6.89,3.22-13.62-1.84-19.46-2.95-11.95-2.3-25.99,4.27-35.54-5.05-6.37-6.24-12.96-6.96-20.41-7.68-11.85-11.22-23.7-22.45-35.54-33.67-3.38-4.4-6.76-8.76-10.14-13.13.03,0,.07.03.1.03-1.94-19.43-15.85-37.09-8.34-58.09.89-2.4-2.95-6.47-4.59-9.75,5.42-14.41,10.8-28.82,16.21-43.22,3.74-2.1,6.83-4.63,6.6-9.48,3.74-2.46,6.76-5.35,6.63-10.31,4.4.39,6.89-1.25,6.4-6.07v-.03h.07ZM271.73,87.93c-.03.16-.07.33-.1.46-.07.53-.16,1.02-.26,1.51-7.88,9.26-19.66,14.41-26.42,28.78.66-18.87,15.92-34.92,27.01-32.06-.07.46-.16.89-.23,1.31ZM373.05,84.42c3.71,5.32,6.76,9.26,4.04,11.32-4.33,3.25-4.46-1.67-4.82-4.5-.2-1.31.26-2.76.79-6.83ZM379.67,115.96c.23-3.64,2.82-5.38,5.84-6.73,1.05-2.86-.75-6.76,2.99-8.53.69-.33,2.26.3,2.89.98,3.28,3.51-1.05,4.99-2.1,7.35.1.07.23.13.33.2.16.07.33.13.39.2.56,3.38,1.67,6.79-.92,9.85-.07-.03-.1-.07-.16-.07t.03.07c-.92-.03-1.84.13-2.72.46-.3-.16-.56-.3-.85-.46-1.31-.66-2.63-1.35-3.94-2.03-.53-.26-1.02-.56-1.54-.82,0-.16-.07-.33-.1-.49-.03,0-.1.03-.13.03-.03.03-.03.07,0,.1-.03.07-.03.13-.03.23.1.26.23.49.36.75.07.43.1.85.03,1.21-.16,3.18-2.56,5.35-4.63,7.68-4.76,6.7-9.48,13.42-14.24,20.15h-.03c-.59.89-1.21,1.74-1.84,2.63-2.36,1.02-5.22,3.38-6.96,2.76-3.38-1.25-1.67-4.56-.3-6.66,4.96-7.42,10.14-14.7,15.23-22.02,2.56-5.19,7.65-5.71,12.41-6.83ZM448.56,320.1c-.79-.3-1.44-.3-1.97-.07-.66.23-1.15.85-1.48,1.77,0,.07-.03.16-.07.23-1.97-.07-3.97-.1-5.94-.16.2-.2.36-.43.49-.62-.16.03-.33.1-.49.16-.07-1.71-.1-3.41-.13-5.12-.03-.92-.03-1.87-.07-2.79.1.2.2.36.33.49,2.56,2.82,10.63-2.4,9.32,6.1ZM448.43,286.49c-.56.2-1.02.46-1.41.79-1.54,1.18-1.97,2.99-2.1,5.02v.2c-2.03,1.51-4.1,3.05-6.14,4.59-.49.49-.98.98-1.44,1.48l-10.5,10.5c-.2.23-.46.49-.69.72-17.59,18.58-33.74,38.53-54.68,53.86-3.87,2.82-2.4,11.72-10.34,12.21-4.3,5.32-8.57,10.67-12.96,15.88-2.92,3.51-5.68,8.24-11.13,3.18.1-.07.23-.16.33-.23-.1.03-.2.1-.3.13,1.77-10.8,12.5-14.24,18.25-21.76.39-.53.79-1.05,1.12-1.61,26.52-29.24,55.6-56.12,79.26-87.89,3.64-2.69,8.34-3.91,11.68-7.02.79-.72,1.48-1.54,2.1-2.49,10.31,5.02.82,8.43-1.05,12.44ZM317.78,411.57c2.1-3.15,4.2-6.3,6.3-9.45.43-.13.89-.23,1.35-.3.46-.07.92-.1,1.41-.1.13.75.26,1.51.43,2.26.13.82.3,1.64.43,2.46.13.59.23,1.15.33,1.74-.46,4.33-2.1,7.48-7.25,6.86-.26,3.05-.03,7.12-4.73,5.78-2.03-.56-4.53-3.41-4.82-5.51-.66-5.19,3.97-3.09,6.56-3.74ZM455,244.94c-1.71,3.68-5.25,6.66-10.04,7.32-2.49.33-3.18-2.66-2.72-4.66,1.18-5.15,4.86-8.07,9.98-8.34,2.43-.13,3.02,2.43,2.79,5.68ZM448.4,208.15s.03.03.07.03c.1.07.2.1.3.13.03.49.03.95.03,1.44.07,1.05.07,2.13.1,3.18,0,.56.03,1.08.03,1.64-7.71,7.68-15.46,15.33-23.2,23.01-1.25,2.13-2.53,4.23-3.77,6.37-.53.53-1.02,1.02-1.54,1.54-1.48,1.51-2.95,3.02-4.46,4.5h-.03c-.07.1-.2.23-.3.33-17,18.44-32.43,38.46-52.54,53.86.07-1.12.1-2.2.16-3.28v-.03c.1-2.49.23-4.96.33-7.45,12.31-10.57,24.12-21.63,32.85-35.48l10.93-9.94c.56-.53,1.12-1.02,1.67-1.54,7.91.2,4.4-12.9,13.36-11.42,3.94-1.12,2.76-4.53,3.28-7.15,1.94-.95,3.64-2.13,5.12-3.54t.03-.07c1.08-.95,2.03-2.07,2.89-3.31t.03-.03c.66-.92,1.21-1.9,1.74-2.95,2.2-1.35,4.3-2.82,5.22-5.25.16-.46.3-.92.39-1.44,1.41-3.45,4.4-3.41,7.35-3.45-.03.1-.03.23-.03.33ZM143.83,444.59c-.2-.03-.36-.07-.56-.1-.26-.03-.49-.1-.75-.13-.66-.13-1.31-.23-1.97-.36-1.64-4.82.2-8.8,2.99-12.57,1.02-.07,2-.16,3.02-.26,1.12-.07,2.26-.16,3.38-.26-.66-5.22.39-9.29,6.56-9.98.36,0,.66-.03.95-.1,2.46-.46,2.59-2.69,2.89-4.82.03-.03.03-.1.03-.13,1.9-.43,3.81-.85,5.71-1.31-.56-8.57,2.13-11.95,10.37-6.47.13.62.23,1.21.26,1.77.36,4.46-2.92,6.4-7.02,7.75-5.71,6.63-8.5,16.61-19.49,17.26,4,7.22-.26,9.09-6.37,9.71ZM245.93,388.89c2.2,1.08,3.22,3.08,1.94,5.02-1.18,1.87-3.28,3.12-5.02,4.66-.3-2.07-.85-4.14-.89-6.2-.07-2.49,1.44-3.68,3.97-3.48ZM189.22,365.1c-4.79,2.63-7.55,10.24-15.98,5.61,4.79-4.43,9.09-8.6,15.92-8.43-.07.56-.07,1.08-.03,1.61,0,.2,0,.36.03.53,0,.23.03.46.07.69ZM182.56,403.63c-.85-.13-1.67-.16-2.49.07.13-5.58-3.64-12.54,5.32-14.93-.1.26-.16.53-.2.75-.03.03-.03.07-.03.1-.16,1.25.56,2.1,1.54,2.79,2.53,1.87,6.83,3.02,3.74,8.3-2.56,4.33-5.25,3.25-7.88,2.92ZM192.77,385.15c1.15-3.02,2.33-6.04,3.48-9.06,1.21-.1,2.43-.2,3.61-.3.85-.07,1.67-.13,2.53-.2.23.82.43,1.64.66,2.46.82,3.05,1.61,6.07,2.4,9.12.07.3.16.59.23.89-4.1,1.35-7.48-.39-10.9-2-.66-.33-1.31-.62-2-.92ZM213.05,383.77c-.03-.2-.1-.39-.16-.59-.07-.23-.16-.43-.26-.62,4.4-.16,10.93-12.67,12.7,2.23-1.15.13-2.3.43-3.45.72-2.89.79-5.78,1.58-8.7-.69,0-.36-.07-.72-.13-1.05ZM340.16,157.22c-.16-3.18,1.02-5.25,4.46-4.76,2.56.36,3.22,2.46,2.72,4.73-.49,2.3.23,5.42-2.99,6.07-3.74-.69-4.1-3.25-4.2-6.04ZM393.26,142.38c-.33.26-.69.53-1.02.79-.66.53-1.35,1.05-2,1.58-.23.16-.49.36-.72.56-1.87-.13-3.74-.26-5.61-.39.03-.1.07-.2.07-.3.59-2.89,1.18-5.78,1.77-8.66.23-1.12.46-2.2.69-3.31,8.8-1.31,6.07,5.45,6.83,9.75ZM369.93,199.72c-.1,1.21-.43,2.36-1.28,3.38v.03c-.39.43-.85.85-1.48,1.25-3.05-4.27-8.7-9.29,2.69-9.48,0,1.61.2,3.25.07,4.82ZM406.03,191.94c-.16.82-.26,1.67-.33,2.49-.59.36-1.18.75-1.74,1.18-7.78,5.58-11.78,14.47-18.05,21.4-6.14.03-7.06,5.42-9.55,9.19h-.03c-.07.16-.2.36-.33.53-7.19,5.61-11.85,5.65-12.21-4-.03-.43-.03-.92-.03-1.41.98-1.02,1.94-2.03,2.92-3.02,1.05-.03,1.97-.26,2.79-.59,0,0,0-.03.03-.03,4.86-2.17,5.74-9.32,10.5-11.59h.03c.79-.39,1.67-.66,2.72-.72,8.73-6.79,12.18-18.84,23.2-23.43,1.15-2.03,2.3-4.07,3.45-6.14.79-.39,1.51-.95,2.23-1.51,1.48-1.15,2.95-2.4,4.82-2.49.75-.07,1.54.07,2.46.43.13,1.02.36,2,.72,2.99-.26.33-.56.69-.82,1.02-4.27,5.25-8.5,10.47-12.8,15.72ZM402.42,168.57c-5.32-.89-10.54-1.9-9.22-9.35.56-.07,1.08-.13,1.61-.16,5.25-.46,8.83.75,8.37,5.94-.07,1.05-.33,2.23-.75,3.58ZM412.26,141.63c.2,1.08.43,2.13.62,3.22.07.3.13.62.2.92-.1,7.38-5.19,6.86-10.21,6.4.69-1.28,1.38-2.56,2.1-3.84,1.12-2.1,2.23-4.17,3.38-6.27.46-.89.95-1.77,1.44-2.66.66.13,1.31.13,2,0,.16.75.3,1.48.46,2.23ZM359.65,166.6c.33-2.3,1.77-4.14,4.04-3.97,2.95.2,4.2,2.49,4.4,6.24-1.21.85-2.72,2.79-4.37,2.92-3.12.2-4.53-2.1-4.07-5.19ZM357.13,306.32c-1.38,4.33-2.79,8.66-4.17,13.03-6.3-6.53-5.32-9.55,4.17-13.03ZM355.19,115.96c-2.66.69-5.97-1.54-4.4-4.69,2.49-5.15,4.66-11.29,11.95-11.82,2.82-.2,3.51,1.77,4.04,4.59-4.27,3.45-5.42,10.31-11.59,11.91ZM350.1,79.96c.43,1.08.75,2.13,1.02,3.09v.07c3.28,12.14-4.79,16.34-14.83,19.17v.03c-.69.2-1.41.39-2.13.59v-.03c.36-11.09,12.34-14.08,15.95-22.91ZM332.18,106.21c1.15,1.81,2,3.74,1.35,6.17-.95.62-1.87,1.31-2.82,1.94v.03c-1.97,1.31-4.04,2.4-6.66,2.17-.33,2.33.46,5.58-2.95,5.91-1.97.2-2.89-.49-3.38-1.51-.69-1.35-.56-3.35-1.08-4.79,1.25-3.64,4.36-3.18,7.25-3.28-.16-4.73.95-8.63,6.37-9.71,0,0,0,.03.03.03.56,1.05,1.28,2.04,1.9,3.05ZM63.59,229.45c-.72,2.07-1.74.79-2.72-.62,1.02.36,1.94.56,2.72.62ZM48.26,263.68c.69-.62,1.41-1.21,2.1-1.81v-.03c.49-.43.98-.85,1.48-1.28.43-.3.85-.62,1.25-.95,6.76-5.51,9.55-14.97,18.02-18.84,4.76-5.15,2.66-19.3,16.25-13.03.07-.03.1-.1.16-.1,0,.07-.03.1-.03.16-.62,7.61-4.63,12.54-11.39,15.2h-.03c-.53.23-1.02.43-1.58.62v.03c-1.87,8.43-6.6,14.15-14.8,16.54h-.03c-.43.13-.82.26-1.25.36.98,2.13,2,4.27,2.99,6.4-3.41,5.05-10.86,1.31-14.18,6.53-.03.36-.03.72.03,1.12.43,3.05,3.35,6.56-1.48,8.57-.16.07-.33.13-.49.2-.49-2.63-3.41-2.53-5.38-3.51-1.05-.49-1.84-1.31-1.87-2.99,2.33-2.13,4.69-4.3,7.02-6.43,1.08-2.26,2.17-4.5,3.22-6.76ZM133.49,171.23s-.1-.03-.13-.03c.03.13.1.3.16.43-1.12,1.15-2.2,2.26-3.28,3.38-1.71.39-3.38.62-4.66-.26h-.03c-.59-.39-1.08-.98-1.48-1.87,1.15-.92,2.07-2.13,2.86-3.48,2.89-4.69,4.56-10.83,11.88-10.34.39.03.79.07,1.21.13,4.53,7.55-7.09,6.6-6.53,12.05ZM88.3,215.14c5.25-.66,8.66-4.14,11.49-8.57.39-.56.72-1.15,1.08-1.74,11.88,4.43.95,8.53-.2,12.77-.95.23-1.67.69-2.33,1.35-3.25,3.22-3.45,10.54-10.54,8.66-.07,0-.13-.03-.2-.03.07-.07.13-.13.2-.16-.13-4.3,0-8.66-3.12-12.24,1.31.13,2.49.13,3.61-.03ZM99.33,254.69c.1.1.23.2.33.3-.36.23-.72.43-1.12.62.3-.33.56-.62.79-.92ZM42.45,309.7c.1-.23.16-.49.16-.72,0,0,0,0,0,0h0c-.29.23-.55.46-.85.72-.1-1.08,0-2.13.26-3.18.19.03.36.03.55.03,0,0,0,0,0,0,0,0,0,0,0,0,0-.07,0-.16-.07-.26,5.08-2.46,8.66-8.53,15.62-6.4-.16.43-.33.89-.46,1.31-.62,1.71-1.25,3.45-1.87,5.15-.39,1.08-.79,2.2-1.18,3.28-4.07.03-8.14.03-12.17.07,0,0,0,0,0,0ZM101.7,287.13s0,0-.01,0c0,0,0,0,0,0,0,0,0,0,.01.01ZM102.51,296.44c-.46.07-.98.03-1.54-.03.23-3.08.49-6.2.72-9.28.49.49,1.01.82,1.5,1.01,0,0,0,0,0-.01,0,0,0,0,.01,0-.07-.3-.13-.59-.26-.89,3.12-.53,6.01-7.15,9.35-2.56.36.49.75,1.12,1.12,1.9-5.19,1.31-4.99,9.42-10.9,9.85ZM40.68,207.53s0,0,0,0h0s0,0,0,0ZM73.7,319.51c.82-.26,1.58-.66,2.26-1.08,7.98-4.92,8.66-18.84,21.3-18.02-.33.89-.66,1.77-.98,2.66-.56,1.54-1.15,3.12-1.74,4.66-.23.62-.46,1.21-.69,1.84-8.3,1.9-8.24,12.14-15.69,15.29-8.86,3.77-6.01-1.05-4.46-5.35ZM120.37,347.24c-.26-.39-.43-.89-.59-1.41.16-.39.3-.82.39-1.25.43-2,.36-4.3,2.33-5.42.36-.23.79-.39,1.28-.53.69.72,1.38,1.44,2.1,2.17.53.56,1.08,1.15,1.64,1.71h.03v.03c-1.31,2.04-2.63,4.07-3.94,6.1-1.67.33-2.63-.3-3.25-1.41ZM143.11,447.11h.03l.16-.03v.13s0,0,0,.01c-.08-.03-.16-.07-.24-.1h.04ZM198.25,408.65c-.03,1.71-.07,3.41-.13,5.09-.3,5.78-1.54,10.93-7.65,13-1.21.43-2.66.72-4.3.85-2.3-10.34,6.53-13.59,12.08-18.94ZM254.4,444.39c-2.2-10.4,7.58-14.08,13.42-19.95,4.66-5.09,9.94-9.71,13.78-15.36,4.56-6.7,14.21-9.26,16.08-18.05.2-.75.33-1.58.36-2.43,13.26,3.22,10.99-10.6,16.18-15.82,15.29-15.39,35.15-26.39,45.98-46.11-.1-.13-.2-.23-.3-.36h.53c6.3.07,9.26-3.84,11.42-8.73.2-.46.39-.89.59-1.35,12.67-10.5,21-25.86,36.59-33.18,1.84-4.37,7.45-6.6,6.86-12.31,1.21-1.15,3.05-1.71,4.82-2.33,3.12-1.05,6.07-2.3,5.32-7.09-.03-.3-.1-.59-.16-.92-.33-7.22,5.94-9.22,10.24-9.03,5.25.2,2,5.68,2.1,8.96-.3.23-.56.46-.85.69-5.22,4.23-9.71,8.99-11.88,15.56-.82,1.02-1.58,2.17-2.3,3.31-3.05,4.86-5.84,10.04-13.88,7.19-.07.16-.16.33-.26.49-10.86,22.19-32.23,35.31-46.93,54.32-14.24,18.44-37.28,29.18-46.54,52.18-.07.13-.13.23-.16.36-.33.82-3.05.72-4.63,1.02-17.82,12.57-32.92,27.96-46.77,44.7-2.33,2.82-5.87,4.63-8.83,6.89-.33-.95-.59-1.84-.79-2.66ZM425.62,346.82c-.82.16-1.58.43-2.23.79-5.68,2.72-5.64,10.24-9.94,14.11v.03c-.3.26-.62.53-.95.75-.16-.03-.36-.07-.53-.13-.89-.2-1.74-.39-2.63-.59.2-10.73,7.94-16.67,14.37-23.47.69-.75,1.38-1.51,2.04-2.3,2.4.13,5.64-1.25,6.24,2.63.69,4.73-5.38,4.53-6.37,8.17ZM392.8,75.53c1.28,3.84-2.79,4.92-4.5,7.22-.13-.3-.26-.56-.33-.85.07.3.13.59.23.89-7.68-.69-4.46-3.74-2.72-6.53.59-.95,1.05-1.87.75-2.66,2.43-.1,5.48-1.38,6.56,1.94ZM364.97,64.14c1.28-2.36,3.84-4.82,6.47-3.22,3.61,2.23,1.08,5.71.23,8.7-.3.03-.56.1-.82.23h-.03c-4.23,1.61-4.69,9.85-11.22,7.42h-.03c-.23-.07-.46-.16-.72-.3,2-4.3,3.84-8.7,6.14-12.83ZM346.56,56.52c.1-.95.16-1.87.23-2.79.07-.92.16-1.84.23-2.76,3.12-.46,5.94-.92,6.4,3.74.56,5.19-2.66,5.81-6.4,6.17-.43,1.87-.85,3.77-1.28,5.64t-.07.03v.03c-.69.92-1.41,1.77-2.13,2.69,0-.03-.03-.03-.03-.07-.03-.03-.1-.03-.13-.07,0,.13-.03.23-.03.36v.03h-.03c-2.1.49-4.2.95-6.3,1.44-.53-.59-.98-1.18-1.35-1.74-3.25-4.79-.43-7.81,10.9-12.73ZM327.56,73.69h2.36c1.12,0,2.2,0,3.28.03-6.07,6.73-8.34,17.23-19,19.53-6.2,12.9-16.11,22.28-29.31,32.13-.2-12.8,9.98-15.33,14.28-21.83h.39c.03-.16.07-.33.1-.49,3.38-3.41,6.76-6.83,10.14-10.27,5.91-6.37,11.85-12.73,17.76-19.1ZM310.59,43.95v.23h.3c-.07.59-.16,1.15-.3,1.71,0,.03-.03.03-.03.03-3.18,14.18-20.22,16.9-25.76,29.41-1.71,3.81-5.42,6.73-8.47,9.98v.03c-.26.26-.53.53-.75.79-9.81-9.68,2.17-13.88,5.91-18.51,7.88-9.71,16.87-18.94,29.11-23.66ZM283.48,37.39c.26-.07.56-.1.85-.13.03-.36.03-.69.03-1.05.03-1.35.07-2.66.1-4,0-.46.03-.95.03-1.41,4.96-2.46,9.45-.82,9.09,4.33-.39,5.09-5.71,1.87-8.96,2.4-2.46,11.03-10.86,17.07-19.36,23.07-10.8,18.08-26.72,31.18-42.93,43.98-2.63,2.07-4.82,7.81-8.8,2.82-2.63-3.28,1.94-5.51,3.97-7.75,2.72-3.02,5.68-5.81,8.6-8.66,0-.13-.03-.26-.1-.43.23-.03.43-.1.66-.13,7.88-8.34,15.69-16.64,23.56-25.01.53-.56,1.08-1.15,1.61-1.71-.39-7.81,4.73-7.02,9.85-6.27,5.42-8.8,10.04-18.48,21.79-20.05ZM257.78,19.21c5.58,4.92,10.47,8.89,1.87,15.39-5.05,3.81-9.45,8.5-14.11,12.8-1.25,2.1-2.49,4.17-3.74,6.24-.79.72-1.54,1.44-2.33,2.2-11.16,10.4-21.4,21.73-30.52,34.03-3.18,2.66-6.33,5.32-9.48,7.98h-.03c-.53.46-1.02.89-1.54,1.31-7.94,2.46-7.15,9.91-9.06,15.79v.1c-.72-.2-1.44-.33-2.1-.43-5.51-.75-9.09,1.41-9.85,8.07.66,1.67,1.31,3.31,1.97,4.96.2.49.39,1.02.59,1.51-3.22.26-6.43.53-9.65.79-.36.36-.69.69-1.05,1.05-2.82,2.76-5.65,5.55-8.43,8.3-.39.53-.82,1.08-1.21,1.61-1.97,2.59-3.94,5.19-5.91,7.78v.03c-1.38.03-2.76.03-4.14.1-.62,0-1.28,0-1.9.03-.03-.92-.1-1.87-.13-2.79-.07-.92-.1-1.87-.16-2.79,0-.2-.03-.43-.03-.62,2.69-1.84,5.22-4.07,8.76-3.74.2.03.43.07.62.1,1.28-5.42,2.59-10.8,3.91-16.18,3.61-.56,6.99-.59,9.85-4.14,9.52-11.85,19.59-23.3,29.44-34.92,13.23-14.31,26.49-28.65,39.74-42.99-.16-.33-.3-.66-.39-1.02-.07-.26-.1-.56-.13-.85,0-.36.03-.72.1-1.08,10.5-1.44,13.72-10.63,19.07-18.61ZM239.83,15.96c-4.14,6.79-8.99,11.75-4.86,18.08-.95-.75-1.9-1.35-2.79-1.77.23.59.49,1.15.85,1.67-9.35-.36-15.98,2.69-17.07,14.08-.23,2.2-4.23,4-6.5,5.97-4.04,2.59-8.7,4.56-10.5,9.58-.46.43-.95.85-1.41,1.28-1.51,1.38-3.05,2.76-4.56,4.14-.2.16-.43.36-.62.56l-1.35.03-1.35-.1c-.03-.07-.03-.1-.07-.16-2.1-5.74,2.36-9.29,4.53-13.62.36-.66.66-1.35.85-2.07.89-.82,1.77-1.61,2.66-2.4.43-.39.89-.79,1.31-1.18.16-.82.3-1.64.39-2.46,4.14-2.49,7.29-5.94,10.14-9.65.95-1.25,1.87-2.53,2.79-3.81,9.65-3.74,13.65-16.02,27.54-18.18ZM180.1,37.39c1.84-3.54,6.66-6.6,9.29-10.7,1.81-2.82,4.1-2.76,6.79-.98,4.59,3.02.36,5.42-.39,8.07-.75.56-1.51,1.15-2.26,1.74-5.94,4.5-11.62,9.19-11.55,17.89-6.99-.13-9.45,5.61-13.03,9.98-4.53,1.31-5.65,9.16-12.18,6.83t-.07-.03h.07c-2.03-17.66,17.07-20.64,23.33-32.79ZM48.26,152.23c3.05-12.37,9.98-21.6,21.89-26.75,7.25-20.84,27.11-31.05,39.94-47.19,2.23-2.85,6.17-4.36,6.99-8.43.65-.16,1.28-.36,1.9-.52,0,0,0,0,0,0,0,0,0,0,0,0-.1-.33-.23-.69-.39-.98v-.03s0,0,0,0c7.74-7.74,15.45-15.52,23.16-23.26.33.16.69.3,1.02.46,0,0,0,0,0,0,0,0,0,0,0,0,.2-.66.36-1.35.53-2.03,2.89-1.08,6.4-4.63,8.66-1.71,2.66,3.48,1.71,7.94-1.97,11.45-5.65,5.35-11.03,10.99-16.48,16.54,0,.1.03.2.1.33,0,0,0,0,0,0h-.44c-14.38,8.76-22.38,23.3-32.56,35.87-7.55,6.73-15.1,13.42-22.65,20.12-1.64-.13-3.31-.26-4.99-.36-.13.2-.23.39-.33.59-.33.26-.69.53-1.02.82.82.66,1.77,1.05,2.79,1.25.56.13,1.12.2,1.71.23-5.45,7.51-10.93,15.03-16.37,22.57-.29-.03-.59-.03-.85-.03,0,0,0,0,0,0,0,0,0,0,0,0,0,.36,0,.75.03,1.15,0,0,0,0,0,0-1.18,3.43-4.43,3.17-7.12,3.9-.07,3.12.1,6.73-4.3,6.53-1.71-.03-4.1-1.61-4.79-3.15-2.43-5.28,3.05-5.28,5.51-7.35ZM34.21,200.67c10.34-12.67,20.41-25.57,30.59-38.37.62-.53,1.25-1.05,1.84-1.61h0c11.65-10.21,22.48-21.2,30.32-34.75,15-18.35,35.35-31.97,47.52-52.81,0,0,0,0,0,0,0,0,0,0,0,0,.59-.95,1.15-1.94,1.67-2.92,3.45-6.63,6.86-1.12,10.24-.1,0,0,0,0,0,0,0,0,0,0,0,0,.03.07.03.16.07.23.23,1.05.46,2.13.69,3.18.36,6.56-6.96,9.22-7.75,15.2-15.82,16.05-33.15,30.75-45.49,49.95-1.12.54-2.13,1.18-3.07,1.91-2.8,2.17-4.88,5.05-6.75,8.11-2.3,2.2-4.59,4.43-6.86,6.63-4.3,4.3-8.6,8.57-12.87,12.87-2.56,5.97-10.37,8.99-9.55,16.87-.85.98-1.81,1.85-2.83,2.64-4.61,3.57-10.64,5.61-15.16,9.29-2.51,2.04-4.54,4.59-5.61,8.19h-.03s0,0,0,0h0c-.23.72-.39,1.51-.52,2.36-2.82.63-7.21,2.62-8.17,1.57-2.17-2.46-.62-5.61,1.71-8.43ZM59.85,381.54c3.38-8.01,11.32-13.16,12.05-22.38.46-.03.92-.03,1.38-.07,2.17-.07,4.3-.16,6.47-.26.46-.46.95-.85,1.51-1.18,1.94-7.84,11.52-12.04,10.54-21.27.36.1.69.16,1.02.2,10.63,1.97,11.55-9.94,18.28-13.59,1.15-1.15,2.3-2.3,3.48-3.41.07-.36.13-.69.2-1.02.66-2.82,2.17-4.43,4.33-5.09,1.31-.36,2.82-.43,4.56-.16.03.69.1,1.35.13,2.03.1,1.41.16,2.82.26,4.2-.89.72-1.38,1.64-1.48,2.76-.07-.03-.16-.1-.23-.13,0,.03,0,.1.03.16-.98.13-1.97.3-2.95.46-.72.1-1.41.2-2.1.33-.1,2.07-.2,4.14-.33,6.2-7.09,5.25-13.29,11.36-18.77,18.08-1.38,1.64-2.69,3.28-3.94,4.99-1.77,1.71-3.48,3.41-5.22,5.12-.46.46-.95.92-1.41,1.38-2.1.1-4.23.16-6.33.23-.79,13.59-12.47,16.64-21.46,22.42ZM82.62,380.49c.39-3.58,5.02-1.41,7.88-.82.03.49.07.95.1,1.44.03.59.07,1.21.1,1.81.03.62.1,1.28.13,1.9-4.4,1.48-8.6-.69-8.2-4.33ZM94.54,402.68c-5.05-2.46-.82-5.87,2.56-7.81.39-.89.59-1.84.53-2.82.79-.92,1.61-1.81,2.4-2.72,6.86-7.75,13.65-15.52,20.51-23.27,9.09-3.54,11.45-15.56,21.89-17.39.59-3.64,1.02-7.42,3.09-10.57.36-.62.82-1.21,1.35-1.77,14.15.89,2.86,8.01,3.02,12.34-.92.3-1.9.46-2.86.46h-.16c-.26.36-.49.69-.75,1.05v.03c-1.35,1.9-2.66,3.77-3.97,5.65-.69.98-1.38,1.94-2.03,2.89-3.81,2.26-6.99,5.12-8.53,9.35-.1.23-.2.46-.26.72-2.53,2.17-5.09,4.33-7.61,6.5-6.47,6.6-12.9,13.19-19.36,19.79-2.1,4.23-5.38,9.75-9.78,7.58ZM190.37,453.97c-2.43,2.63-4.69,5.05-7.75,3.22-4.66-2.79,1.61-6.14.3-9.39,1.05,0,2-.1,2.86-.36,3.31-.75,5.61-3.12,7.35-6.33.53,0,.98-.13,1.38-.33,3.91-1.84,4.37-10.57,10.9-7.15.39.2.79.43,1.21.72-.3,1.61-.59,3.22-.85,4.82-.1.39-.16.79-.23,1.18-5.12,4.5-10.6,8.63-15.16,13.62ZM231.43,463.88c.1-1.41.39-2.66.85-3.81,2.56-6.43,10.08-9.35,12.96-15.56,1.9-.59,3.38-.69,4.46-.3,1.35.39,2.13,1.51,2.43,3.15.23.95.26,2.07.16,3.35-.03.07-.07.16-.1.23-.36.95-.72,1.9-1.05,2.89-9.09-1.54-9.65,13.55-19.72,10.04Z"/>
        <path class="cls-1" d="M420.43,416.1c-.73,4.5-.68,6.13-1.27,7.5-2.45,5.76-1.75,9.93,4.85,12.26,2.43.86,5.25,3.42,6.97.86,3.59-5.35-2.15-8.45-4.25-12.35-1.2-2.22-3.06-4.08-6.3-8.27Z"/>
        <path class="cls-1" d="M408.06,435.39c-.27-.25-4.44,2.3-4.35,3.33.54,6.34,4.01,10.45,10.79,11.53,3.32-7.52-2.25-11.01-6.44-14.86Z"/>
        <path class="cls-1" d="M439.95,420.58c1.09.59,3.95.27,4.24-.39,2.45-5.58-2.41-8.17-5.85-13.42-4.33,6.72-3.7,10.91,1.61,13.81Z"/>
        <path class="cls-1" d="M388.72,445.66c2.16,10.3,5.28,15.47,14.26,16.91-1.86-7.41-6.93-10.95-14.26-16.91Z"/>
        <path class="cls-1" d="M465.82,362.11c3.28,5.88,6.7,11.63,17.06,14.09-6.1-7.35-9.55-12.85-17.06-14.09Z"/>
        <path class="cls-1" d="M448.56,391.93c-2.98-.33-3.04,2.26-3.49,3.9-.27,5.04,3.43,4.78,6.41,5.62,3.35.94,3.78-1.48,3.41-3.39-.63-3.27-2.78-5.75-6.33-6.13Z"/>
        <path class="cls-1" d="M464.39,389.66c-.06.18-.1.35-.16.53l.22-.48s-.04-.03-.06-.05Z"/>
        <path class="cls-1" d="M459.25,375.83c-.81-.38-3.46.92-3.53,1.6-.55,5.66,4.66,7.7,7.54,11.23.32.39.74.68,1.13,1,1.95-5.9,1.12-10.92-5.15-13.83Z"/>
        <path class="cls-1" d="M471.96,346.9c4.25,3,8.14,5.75,12.03,8.5-2.57-4.78-2.18-14.15-12.03-8.5Z"/>
        <path class="cls-1" d="M464.23,390.19c.11-.15.23-.28.35-.43-.03-.03-.07-.07-.1-.1-.02.04-.25.52-.25.52Z"/>
        <path class="cls-1" d="M464.58,389.76c2.6,2.3,4.43,6.4,8.84,4.85,2.57-.9,1.92-3.81.78-5.36-3.48-4.74-6.72-3.2-9.62.51Z"/>
        <path class="cls-1" d="M284.63,37.52c.03-.1.03-.2.07-.3h-.07c-.1,0-.2.03-.3.03v.33c.1-.03.2-.03.3-.07Z"/>
        <path class="cls-1" d="M323.95,114.65c-.2.2-.36.33-.56.49,0,0,0,.03-.03.03-.07.07-.13.1-.2.1v.03c.13.43.43.82.89,1.21-.03-.59-.07-1.15-.07-1.74,0-.03,0-.07-.03-.13Z"/>
        <path class="cls-1" d="M49.6,153.71c-.07.2-.16.39-.23.59.26.03.53.03.75,0-.2-.2-.36-.39-.53-.59Z"/>
        <path class="cls-1" d="M423.55,236.51c.1-.13.23-.2.36-.3-.03-.03-.07-.07-.1-.07-.1.13-.2.23-.26.36Z"/>
        <path class="cls-1" d="M370.88,397.46c.39-.23.82-.43,1.21-.66-.03-.03-.07-.07-.07-.13-.39.26-.75.49-1.15.79Z"/>
        <path class="cls-1" d="M203.53,195.52c-2.26-14.51-13.32-19-17.23-28.13-.89-2.07-3.41-2.56-5.28-.59-1.9,1.97-.79,3.77.79,5.45,6.6,7.02,13.13,14.08,21.73,23.27Z"/>
        <path class="cls-1" d="M158.21,192.07c-.3,7.81,10.54,5.94,11.59,13.03.36,2.46,2.4,3.25,6.1,1.48-2.13-7.84-8.5-12.41-14.31-17.3-.23-.2-3.35,1.77-3.38,2.79Z"/>
        <path class="cls-1" d="M157.81,265.49c3.61-4.2-1.97-9.09-4.86-13.1-4.82,2.4-1.31,5.19-2.66,8.34-3.05,6.99,3.94,8.93,7.52,4.76Z"/>
        <path class="cls-1" d="M202.51,168.51c.75-.13,1.28-1.51,1.9-2.3-4.59-2.79-3.68-12.54-13.49-8.76,5.81,1.87,2.72,12.64,11.59,11.06Z"/>
        <path class="cls-1" d="M197.3,204.9c-6.7-7.02-11.26-11.78-15.82-16.57.66,8.73,4.59,14.15,15.82,16.57Z"/>
        <path class="cls-1" d="M149.94,204.05c-.1,8.73,1.21,13.65,9.12,13.65,2.23-7.25-3.25-9.26-9.12-13.65Z"/>
        <path class="cls-1" d="M209.08,149.47c.1.13.2.23.26.26-.98,7.06,3.09,9.78,8.99,10.93-1.44-4.99-3.38-9.52-8.63-11.03l-.03-.03c-.1-.13-.2-.26-.23-.36,0,0-.03.03-.07.03,0,0,0-.03.03-.07v-.1h-.03c-.07.07-.36.33-.36.33.03,0,.03.03.03.03h.03Z"/>
        <path class="cls-1" d="M166.38,244.06c-1.21.82-3.41.69-2.43,3.12,1.25,2.95,2.79,5.87,6.5,5.78.85,0,2.53-2.3,2.33-3.15-.79-3.12-2.86-5.32-6.4-5.74Z"/>
        <path class="cls-1" d="M159.32,217.77l.03-.07h-.3c0,.13-.07.23-.07.36l-.03.03c.23-.07.43-.1.62-.13-.07-.1-.13-.16-.2-.26l-.07.07Z"/>
        <path class="cls-1" d="M159.59,217.97c2.99,4.4,5.65,9.35,13.59,9.52-4.27-5.61-6.86-10.86-13.59-9.52Z"/>
        <path class="cls-1" d="M158.47,279.37c-1.18-.07-3.51,1.64-3.41,2.26.46,2.86,2.4,4.92,5.48,4.23,1.77-.36,3.31-1.97,4.89-3.02-1.71-3.84-4.63-3.41-6.96-3.48Z"/>
        <path class="cls-1" d="M232.71,148.95c-2.92-3.09-5.81-6.17-10.76-11.39-.03-.07-.1-.13-.16-.2,0,.07.03.16.03.23.98,8.99,5.09,10.99,10.9,11.36Z"/>
        <path class="cls-1" d="M160.67,238.15c4.23-4.92-2-5.12-3.91-7.25-1.84-4.3-5.74-5.55-8.37-2.33-3.97,4.79,1.58,5.32,4.46,6.76,2.43,1.48,3.45,7.94,7.81,2.82Z"/>
        <path class="cls-1" d="M271.24,154.62c-1.64-2.13-2.4-3.77-3.68-4.59-1.67-1.12-4.66-5.25-5.45-.43-.62,3.58,2.79,6.7,9.12,5.02Z"/>
        <path class="cls-1" d="M176.03,185.44c.3-2.53.62-5.38-2.69-6.56-1.97-.72-3.41.53-3.15,2,.36,1.94,1.58,3.81,2.86,5.42,1.21,1.54,2.82.92,2.99-.85Z"/>
        <path class="cls-1" d="M392.93,378.65v-.2c-.1-.03-.2-.03-.26-.03,0,.13-.03.23-.03.36.1-.03.2-.1.3-.13Z"/>
        <path class="cls-1" d="M319.19,413.21c-.1-.1-.16-.2-.26-.3-.1.1-.2.2-.26.33t-.07.07s.07,0,.1-.03c.16,0,.33,0,.49-.07Z"/>
        <path class="cls-1" d="M90.93,181.63v.2s.07-.03.1-.07c-.03-.03-.07-.1-.1-.13Z"/>
      </g>
    </g>
  </g>
</svg>