<?xml version="1.0" encoding="UTF-8"?>
<svg xmlns="http://www.w3.org/2000/svg" version="1.1" viewBox="0 0 500 500">
  <defs>
    <style>
      .cls-1 {
        fill: #22262d;
      }
    </style>
  </defs>
  <!-- Generator: Adobe Illustrator 28.6.0, SVG Export Plug-In . SVG Version: 1.2.0 Build 709)  -->
  <g>
    <g id="Capa_1">
      <g>
        <path class="cls-1" d="M414.1,148.57c-38.48-63.31-105.28-95.74-179.11-91.8-45.7,2.45-79.3,19.75-114.88,45.57-.03,7.17,24.89-15.73,28.23-10.25-8.76,5.71-17.58,10.51-25.67,17.32-.76.65-1.62,1.75-2.56,2.56-14.48,12.76-36.21,40.12-44.95,57.13-1.38,2.71.16,6.13,0,6.42-1.07,2.35-4.96,3.47-5.11,3.86-10.77,25.38-17.79,62.4-15.42,89.87.65,7.62,10.02,45.1,12.83,52.64,25.3,67.8,93.08,116.45,165.62,117.47,3.39-.21,7.17-.6,10.25,1.28,11.87-1.7,6.99,2.11,9.63,2.56,12.44,2.14,45.81-5.53,59.06-10.25,49.15-17.56,96.15-64.59,114.91-112.98,2.77-7.15-1.51-7.38,7.7-11.56,1.04-4.02,1.43-9.68,3.86-13.49,5.32-56.42,5.79-96.65-24.39-146.34ZM187.48,67.05c.81-.05,16.85,3.34,11.56,5.14-1.07.37-12.96,1.72-19.25,3.83-.94.34-14.3,10.59-17.32,5.79-.42-1.77,23.27-14.66,25.02-14.76ZM122.66,341.76c-5.11,4.7-18.44-21.78-21.81-33.36-6.65-22.77-.57-41.53-9-63.55,3.44-20.24,8.84-38.84,17.97-57.13-6.34-.65.57-11.97,3.86-7.7,13.15-22.41,35.56-40.04,57.75-53.29-13.49-6.16-33.29,26.66-40.43,26.32l-1.28-2.56c40.09-41.35,44.24-26.92,48.78-28.25,5.76-1.67,15.03-7.75,20.53-8.97,81.83-18.52,112.14,4.17,168.83,59.69,5.97,9.31.29,7.07,1.28,8.97,6.47,12.44,8.48,16.17,14.11,29.53.16.37,4.28,1.72,5.14,3.86,21.26,52.46,1.96,114.65-39.16,152.13-15.36,14.03-30.1,17.74-44.92,29.53-64.41,22.88-141.7.78-181.66-55.22ZM337.69,409.82c-2.87,1.59-21.86,11.14-23.09,11.56-.21.05-1.2-2.09-3.86-1.3-10.77,3.23-33.18,10.85-33.39,5.14,38.66-7.77,82.33-34.51,107.21-64.82,23.58-28.77,26.76-50.92,36.57-85.38,3.6,49.04-41.82,111.57-83.45,134.81Z"/>
        <path class="cls-1" d="M388.4,289.14c.23-1.67,2.66-2.84,2.58-3.21-.29-1.17-5.09-8.66-9,5.77-.57,2.17.08,11.06-1.28,13.49-9.1,3.39-11.37,17.56-20.53,29.53-6,7.83-30.94,32.27-38.53,37.88-2.06,1.51-4.25,2.56-6.42,3.83-5.37,3.18-10.25,9.39-15.39,5.14-8.58,4.17-12.76,7.46-13.49,7.7-15.21,4.88-72.68,1.7-47.5,6.42,8.16,1.54,33.81-1.23,46.22,0,42.34-14.48,96.78-60.65,103.33-106.54Z"/>
      </g>
    </g>
  </g>
</svg>