<?xml version="1.0" encoding="UTF-8"?>
<svg xmlns="http://www.w3.org/2000/svg" version="1.1" viewBox="0 0 500 500">
  <defs>
    <style>
      .cls-1 {
        fill: #22262d;
      }
    </style>
  </defs>
  <!-- Generator: Adobe Illustrator 28.6.0, SVG Export Plug-In . SVG Version: 1.2.0 Build 709)  -->
  <g>
    <g id="Capa_1">
      <g>
        <path class="cls-1" d="M453.85,77.58l-1.13-1.13c-10.15,7.42-6.79,10.25,1.13,1.13Z"/>
        <path class="cls-1" d="M492.89,475.09c-2.82-6.62-76.19-68.31-86.71-81.83-3.32-.02-4.98-2.69-7.13-4.5.32-2.09-1.87-5.41-3-6.76,20.71,13.51,39.49,39.38,61.18,48.05,1.94.49-4.88-11.39-5.63-12.39-8.99-12.04-44.56-37.57-57.43-49.17-30.44-27.46-58.37-57.86-87.46-86.71.29-.53,1.37-.51,1.88-.38,6.44,1.66,74.56,81.01,97.59,90.09l1.13-1.13c-38.16-42.26-81.16-80.03-120.87-120.87l156.9-162.15c-.03-.23-2.32-.85-2.25-1.5.21-1.94,20.42-25.83,22.52-31.91.73-2.11,2.38-2.67-.38-5.26-.55,2.41-2.09,1.19-2.63,1.5l9.01-15.39c-.48-3.34-3.09,2.22-4.88,1.13-5.38-3.27,21.16-25.71,10.51-30.03-17.34,20.54-38.49,37.82-56.68,57.43-12.96,13.97-23.67,29.88-37.54,43.17l-.75-.75c9.7-11.62,18.88-23.94,28.53-35.66,7.14-8.68,17.39-15.24,19.52-27.03-10.57,1.61-20.13,14.13-27.78,22.52-11.7,12.84-21.43,27.65-33.03,40.54-27.44,30.48-58.16,58.05-85.96,88.21-1.33-.89-.91-1.42-.38-2.63,2.71-6.12,84.12-79.61,89.71-98.72-.58-.32-2.3.45-3,.75-7.75,3.34-103.33,106.1-118.61,120.11-23.42-21.15-153.46-150.92-163.66-157.65-1.04-.68-2.15.82-2.25.75-10.12-6.8-11.41-6.37-12.01-6.76-3.12-1.99-16.36-14.86-19.52-14.26-3.89.73,10.73,9.34,3,7.51-2.15-.51-27.24-21.01-16.14-6.38-9.01,3.41-28.72-22.31-32.28-10.51,20.59,17.51,38.35,38.51,58.18,56.68,11.73,10.75,48.22,39.49,51.42,43.17.53.6-.8,1.44-.75,1.5,3.47,4.3,9.02,6.02,4.13,6.38-15.23-14.3-31.62-27.21-47.67-40.54-.62-.51-1.28-1.45-2.25-2.25-8.04-6.63-16.14-18.72-27.78-18.39,5.68,6.52,4.22,8.57,4.5,9.01,6.35,9.87,47.26,40.15,58.93,50.67,30.43,27.45,58.03,58.21,88.21,85.96l-1.13,1.88c-22.98-21.54-52.11-53.28-75.07-72.82-2.36-2.01-24.88-20.97-25.15-16.89l120.87,120.87c-23.17,26.33-108.55,107.17-123.12,125.37-.22.27,3.64-.68-1.5,5.26-8.62,6.51-18.7,16.53-24.02,25.9-.51.9-4.18,6.95-1.13,7.51,2.86.52,6.95-6.67,8.63-8.26,3.14-2.98,6.45-5.8,9.38-9.01l1.13,1.13-42.79,47.3,1.13,1.13c4.45-5.03,9.44-9.29,14.64-13.51l.75,1.5c-6.75,4.39-40.87,45.58-12.01,19.14-2.96,4.22-5.36,5.79-7.51,10.89-.37.87-3.27,3,0,3-2.21,2.78-12.93,16.5-13.51,18.39-3.2,10.33,1.54,6.47,6.38,2.63,12.2-9.69,60.59-67.15,82.2-87.83,3.48-3.33,4.31-2.82,4.5-3-11.98,19.05-40.64,40.47-44.29,59.68,8.39-6.98,7.48-3.85,7.88-4.13,12.76-8.65,39.75-45.93,52.17-59.68,27.38-30.29,57.75-57.96,85.96-87.46l1.88,1.13c-12.34,12.24-89.7,88.28-90.84,97.59-.08.63-.19,1.54.38,1.88.79-.11,1.5-.48,2.25-.75,7.89-2.85,102.84-105.79,117.86-119.36h2.25l126.12,123.87c3.98-4.03,15.87,16.04,18.77,16.52,7.73,1.27-10.69-14.33-10.13-15.39,1.59-3.05,10.6,11.22,19.52,16.52.14,2.97-4.29-2.33-3.75.75.12.67,8.42,10.78,7.51.38.39.11,1.02-.05,1.5,0,3.93,3.75,32.6,31.06,34.91,30.78,4.4-.53-15.05-14.62-9.01-15.01,1.68-.11,27.02,28.74,22.9,16.89-13.51-11.61.1-3.42,4.88,1.88l-1.88-4.13,1.13-1.13c5.96,5.06,18.05,16.88,25.15,18.02,2.58.41,5.88,1.98,3.75-3Z"/>
      </g>
    </g>
  </g>
</svg>