<?xml version="1.0" encoding="UTF-8"?>
<svg xmlns="http://www.w3.org/2000/svg" version="1.1" viewBox="0 0 500 500">
  <defs>
    <style>
      .cls-1 {
        fill: #22262d;
      }
    </style>
  </defs>
  <!-- Generator: Adobe Illustrator 28.6.0, SVG Export Plug-In . SVG Version: 1.2.0 Build 709)  -->
  <g>
    <g id="Capa_1">
      <g>
        <path class="cls-1" d="M455.22,407.25c11.75-7.6,12.08-17.8,1.27-26.77-1.64-1.33-1.88-4.3-2.79-6.51-2.12-2.66-3.72-6.21-6.45-7.84-18.47-10.9-33-26.19-47.27-41.79-15.78-7.96-21.38-26.62-36.82-34.88-3.75-3.24-7.48-6.48-11.23-9.72-.21-6.24-5.63-5.54-9.36-7.09-1.7-1.76-3.48-3.45-5.09-5.3q-19.05-21.62-4.09-43.66s0,0,0-.02c13.96-11.65,23.78-27,36.06-40.16,13.55-15.72,33.4-24.83,44.88-42.73,0,0,0,0,0-.01,12.5-12.84,24.88-25.76,37.51-38.48,4.84-4.87,9.78-10.6,5.03-16.87-8.48-11.17-16.84-22.86-30.07-29.34-5.75-12.69-17.23-20.62-26.59-30.01-14.63-14.75-27.28-9.72-33.58,11.87-.64,2.21-.42,5.03-4.15,1.97-4.3-3.48-8.18-3.39-8.51,3.63-7.36,2.88-12.41,8.05-15.56,15.23-7.51-1-4.94,6.93-8.42,9.51-6.66-.48-9.2,4.03-11.2,9.2-3.09,7.75-18.53,7.9-13.17,20.83,7.24.61,7.3-10.93,15.23-9.17,1.27-2.85,2.6-5.69,3.88-8.54,1.64-.06,3.24-.12,4.87-.18.03.67.06,1.33.12,2,.33,5.42.76,10.87-7.72,7.57-.39-.15-.79-.3-1.21-.51.03-.06.06-.09.12-.15h.03c.03-.06.06-.09.12-.15-.06-.03-.15-.03-.21-.03-.06.09-.09.21-.15.3.03,0,.03.03.06.03-.03.03-.06.09-.09.12-.48.64-.55,1.39-.36,2.21.64,3.6,5.57,8.3-2.42,9.66-.15-.24-.27-.55-.42-.79v-.03c-.12-.15-.24-.3-.39-.39-.3-.18-1.03-.09-1.24.15-7.57,8.93-13.69,20.11-23.07,26.13-7.06,4.54-9.9,14.99-20.14,14.63-.09.24-.12.48-.12.7-.06.36-.03.7.06,1.03.06.36.18.7.36,1.03-3.57,4.33-6.39,9.42-11.93,11.75-.12.06-.21.12-.33.15-9.51-12.2,3.27-13.32,8.93-17.96,2.97-4.33,5.9-8.66,8.87-12.99.48.15.94.27,1.36.36.03-.33,0-.67-.03-1,3.36-1.51,6.81-2.91,8.54-6.54.06.03.09.03.15,0,.03-.21.09-.42.12-.64,3.97-3.88,7.9-7.72,11.84-11.6-.09-.24-.18-.51-.3-.73.24.09.51.18.76.27,3.45-.82,5.69-2.51,4.78-6.36-5.36-2.27-10.63-4.21-13.87,3.15.06,5.24-5.12,5.09-7.75,7.57-2.85,2.42-5.69,4.87-8.54,7.33-13.57,7.54-22.5,19.53-30.85,32.1-7.27,5.36-12.26,3.54-19.26-2.48-11.42-9.87-19.41-23.98-34.64-29.31-2.18-3.15-4.36-6.3-6.54-9.45,0,0,0,0-.01,0-.06-1.03-.13-2.06-.19-3.08,0,0,0,0,0,0-1.73-5.68-8.3-.78-9.93-3.84-9.05-17.11-27.83-25.28-37.55-41.63-4.97-8.48-11.87-4.09-18.32-2.79-.09,2.85-.15,5.75-.24,8.63-1.45,1.06-2.85,2.15-4.15,3.33-7.54,6.63-12.93,14.93-17.08,24.19-8.93.97-12.54,8.39-17.56,14.17-.24.3-.48.61-.76.88-10.87,5.09-13.93,20.98-31.13,21.17,9.27-10.96,17.32-20.53,25.4-30.1.36-.33.7-.7,1.06-1.06,13.14-12.87,26.28-25.77,39.42-38.7.82-.82,1.64-1.6,2.45-2.42.94.21,1.79.06,2.57-.42-.51.48-.97,1-1.36,1.54.42-.39.82-.79,1.24-1.18.03,0,.09-.03.12-.03v-.18c2.85-5.06,11.02-10.33-1.3-14.59-2.91-1-5.12-4.69-7.12-7.51-7.06-10.02-16.02-11.78-23.07-1.73-6.81,9.75-16.96,16.41-22.59,26.89-7.3,4.24-10.57,11.84-15.17,18.29-7.99,4.84-14.38,11.17-20.65,18.2-9.6,10.78-9.63,13.29,4.94,21.07,12.72,20.32,33.64,32.76,48.57,50.93,13.81,14.66,30.13,26.83,42.39,43.03.79,1.06,3.72.51,5.66.73,2.24,12.78,13.05,18.59,21.41,26.4.97,1.88,1.94,3.72,2.91,5.6-9.9,5.18-19.32,10.87-24.74,21.26-6.99,4.33-14.69,8.11-14.5,18.17-17.11,11.32-29.19,27.71-42.94,42.45-7.51,5.54-18.05,8.96-15.41,21.71.12.7.3,1.36.61,2-1.88.58-3.72,1.15-5.6,1.73-8.78,2.91-14.32,10.72-21.89,15.56-6.15,3.91-16.5,12.96-12.6,23.5,5.69,15.35,13.9,29.46,28.61,39.03,8.3,5.39,15.41,12.96,22.01,20.44,13.05,14.87,15.11,14.9,28.71,2.94,9.72-8.54,20.77-15.53,28.07-26.62,1.3.61,3.54,1.94,3.75,1.67,19.53-24.07,44.66-42.45,65.62-65.04,0,0,0,0,0,0,0,0,0,.01,0,.02,5.22-4.89,13.43-6.81,15.14-15.2,0,0,0,0-.01,0,0,0,.01,0,.02-.01,3.82-2.21,7.09-5,9.08-9.05,6-2.79,6.99-11.75,14.93-12.14,2.06,5.69,6.72,6.21,11.78,5.93,2.36,5.78,5.33,10.84,12.63,10.9,0,0,0,0,0,0,1.93,2.5,3.85,4.99,5.78,7.49,0,0,0,0,0,0,0,0,0,0,0,0,2.76,4.12,6.75,6.6,10.66,9.6,10.84,8.3,20.14,18.56,31.85,25.83,0,0,.01-.01.02-.02,0,0,0,.02,0,.03.5.85,1.22,1.15,2.17.92,0,0,0,0,0,.01,2,11.48,14.93,13.9,19.77,23.56,1.57,3.15,1.76,13.26,11.02,9.48,0,0,0,0,0,0-.17,8.98,10.13,6.46,13.13,11.96,3.66,9.96,11.58,15.91,20.06,21.33,2.64,7.47,6.95,12.11,15.69,9.29,0,0,0-.02,0-.02,0,0,0,0,.01.01,15.59-1.36,22.04-15.9,33-23.8,12.41-8.93,21.38-22.44,34.58-30.98ZM39.57,113.2c-.06-1.12,0-2.15.09-3.18,1.33-13.47,15.08-18.92,21.04-29.43.36-.27.73-.55,1.09-.85,6.66-5,11.66-11.48,16.08-18.44.42-.67.85-1.36,1.27-2.03,4.6-4.21,9.33-8.27,13.72-12.66,2.24-2.24,4.66-4,7.6-2.76,4.51,1.88,1.73,5.75,1.76,8.84-.3.27-.61.58-.91.85-13.47,12.78-27.07,25.43-37.82,40.76-.06.09-.12.18-.18.27-11.48,1.67-12.81,16.26-23.74,18.62ZM381.22,420.33c.06,1.67.09,3.33.12,4.97-.39-.03-.82-.03-1.21-.06-.7-.03-1.36-.06-2.06-.12-.85-.03-1.7-.06-2.54-.12-.3-4.18,1.88-6.63,5.63-7.93.03,1.09.06,2.18.06,3.27ZM357.51,385.69c1.64-2.3,3.27-4.66,4.97-6.93,1.21-1.57,1-5.78,4.72-2.94,1.51,1.15,3.15,2.88,3.51,4.63.55,2.66-1.18,4.66-4.09,3.72-3.39-1.12-5.81,3.51-9.11,1.51ZM358.81,416.18c-1.33.15-2.79.09-4.45-.27,4.12-4.75,8.21-9.54,12.32-14.29-.03-.15-.06-.33-.09-.48.09.06.21.15.3.24,1.76-.33,3.48-.67,5.21-1.03,1.06-5,3.88-8.02,9.2-8.24.51,1.64.67,3,.51,4.18-.58,4.48-5.54,5.96-9.24,8.3-4.36,4.27-7.33,10.78-13.78,11.6ZM321.23,361.56s-.06-.03-.06-.06c-.03,0-.03-.03-.06-.06.21-.42.39-.91.55-1.39,1.15-3.57,1.45-7.93,6.57-7.54.48.03,1.03.12,1.64.24-1.39,4.39-3.91,7.72-8.63,8.81ZM337.98,341.18c.09-.06.18-.09.27-.12.45,1.85.88,3.72,1.3,5.6-.18.33-.36.64-.58.94-1.64,2.33-4.09,3.39-5.63.48-1.91-3.57,1.51-5.57,4.63-6.9ZM352.45,355.02c-.33-.7-.27-1.27.18-1.76.67-.7,2.18-1.12,4.6-1.3,1.94.82,3.63,1.97,3.03,4.39-.7,2.63-3,1.91-4.87,1.85-1.57-1.21-2.54-2.27-2.94-3.18ZM272.15,327.31c-4.94,5.12-6.81,4.39-7.69,1.73-.55-1.67-.67-4.09-.94-6.3.67-.58,1.36-1.12,2.09-1.7.15.15.3.27.45.42.12-.39.3-.76.45-1.15,4.6-3.66,9.2-7.3,11.66-13.02.06-.18.15-.36.24-.51,1.94-3.94,6.15-1.64,9.11-2.76.18-.06.3-.15.45-.21-.06-.12-.18-.21-.27-.33.61-1.76,1.21-3.48,1.82-5.24.39-.91.82-1.82,1.21-2.73,2.27-.09,4.54-.18,6.81-.27l2.27-.09c-.3,7.72-8.3,8.27-11.93,12.87.06.58.18,1.15.33,1.73-.21-.12-.42-.21-.64-.3-.06,0-.12.03-.18.03.24.33.58.64.97.88-5.39,5.66-10.78,11.35-16.23,16.96ZM160.21,343.12c-2.36.97-4.06.79-5.36,0-1.57-.97-2.57-2.88-3.54-4.87.03-.21.03-.45.03-.67v-.42c.18-.18.36-.36.55-.51.82-.64,1.76-1.03,2.76-1.15.76-.12,1.57-.12,2.42.03,1.06,2.51,2.12,5.06,3.15,7.6ZM315,281.07c-.94,3.03-4.06,5.36-6.21,7.99l-1.09,1.27c-1.27,1.48-2.54,2.97-3.82,4.45-1-.85-2.09-1.64-2.91-2.57-1.03-1.21-1.67-2.57-1.18-4.42.09-.45.27-.91.51-1.42,3.85-2.39,8.42-3.91,10.87-8.05.24-.39.48-.82.67-1.27,3.85.24,5.6-7.96,8.93-4.03,4.6,5.42-4.6,4.33-5.78,8.05ZM269.91,203.83c-.12-.12-.24-.21-.36-.27-.39-.3-.82-.58-1.21-.85h-.12c-2.91-6.63,7.81-7.57,7.39-13.17.79-.24,1.51-.55,2.18-.88v-.03c4.57-2.45,6.57-7.51,9.96-11.17l54.5-51.69c8.54.48,6.51-14.81,16.44-12.29.42.12.85.24,1.33.42,2.39,3.09,3.27,6.93-1,8.11-13.11,3.69-17.56,17.47-28.49,23.65-1.3.73-.82,4.63-1.18,7.06-.33-.21-.64-.36-.94-.48.09.21.21.39.36.58-1.97.27-3.75.82-4.18,3.27-.39.21-.76.42-1.12.64-9.3,5.39-15.35,14.2-22.77,21.53-.55.58-1.09,1.12-1.67,1.64-8.11,3.21-11.66,11.29-17.62,16.78-3.42,3.15-6.72,5.96-10.96,7.54-.18-.12-.36-.27-.55-.36ZM333.8,123.62c.73-1.06,1.21-2.54,1.51-4.27.33,1.33.24,3.15.42,4.66-.64-.12-1.27-.27-1.94-.39ZM308.82,192.6v-.27s0,0,0,0c.19.03.34.09.51.14-.17.05-.35.09-.52.14ZM301.7,257.85c3.21,1.36-1.91,4.36-2,6.99-2,.03-4.03.03-6.03.06,2.54-2.69,3.06-9.14,8.02-7.06ZM234.54,235.56c-2.15-4.24,3.91-6.24,4.78-9.66.42-.03.88-.09,1.3-.12h.03c1.33-.12,2.6-.24,3.94-.33.06-.03.12-.03.18-.03,5.69-9.93,10.84-20.47,24.47-20.86l.06.06s.06-.03.09-.03l.15-.03.21-.03c.3,1.12.61,2.21.94,3.3.18.7.36,1.39.58,2.09-7.48.64-12.69,3.91-14.08,11.63-.06,0-.12,0-.18-.03.03.15.06.33.09.48-2.48,1.97-4.63,4.72-8.45,3.75-4.21,3.91-3.39,13.08-12.48,11.93-.76-.76-1.3-1.48-1.64-2.12ZM245.02,288.8c-1.67-.7-3.72-1.85-4.36-3.33-1.42-3.48,2.03-2.33,3.24-2.3,1.91,0,3.82.88,4,4-.82.51-2.18,1.91-2.88,1.64ZM253.86,305.03c.09-.03.15-.06.24-.06s.18,0,.27.03c-.03-.24-.03-.48-.06-.76,4.66-.12-.06-11.99,8.72-6.96,2.27-2.66,4.51-5.3,6.78-7.96.39-.06.79-.09,1.18-.15,1.42-.15,2.85-.36,4.3-.51.03-.06.09-.15.09-.21-.06-.03-.12-.06-.18-.09-.64-2.15-1.27-4.3-1.88-6.45.03-.09.06-.21.09-.3.09.09.15.21.24.3.3.18.58.39.88.55-.3-.42-.64-.82-.97-1.21.12-.33.21-.67.33-1,2.66-.39,4.81.85,6.9,2.51,2.54-6.54,5.24-12.9,12.93-14.99.18.7.27,1.36.21,1.97-.15,4.3-5.27,6.3-6,10.36-.21.21-.45.39-.67.61-.91.79-1.79,1.64-2.69,2.42-.18.48-.39.94-.61,1.36-1.57,3.06-4.12,5.18-6.87,7.12-.48.33-1,.67-1.48,1-2.36,4.06-6.06,6.33-10.14,8.05-.67.27-1.33.55-2.03.79-.21,1.57-.42,3.18-.61,4.78-.03.24-.06.51-.12.76-4.42,3.51-8.87,7.02-13.26,10.48-4.39-6.42,1.85-8.69,4.39-12.41ZM417.25,69.66c2.12,1.45,3.88,3.82,6.57,3.63-.55,1.09-1.12,1.88-1.67,2.36-2.51,2.39-5.03-.3-7.54-1.67-.82-.42-1.6-.73-2.42-.67-.03-1.42-.06-2.85-.09-4.27,2.15-.94,3.72-.36,5.15.61ZM411.53,78.41c.06,2.88,2,6.33-2.54,7.81-1.21-1.09-2.18-2.24-2.76-3.51-.58-1.3-.76-2.76-.36-4.39.03-.21.09-.42.15-.64,1.85,0,3.69.03,5.54.06-.33.33-.67.7-1,1.03.33-.09.64-.21.97-.36ZM384.43,52.07c.85,2.85.06,5.6-2.97,7.12-.51-.33-.94-.67-1.27-1.06-1.33-1.48-1.45-3.36-1.51-5.24-.03-.88-.06-1.79-.18-2.63,2.27-.24,5.03-1.21,5.93,1.82ZM362.11,78.2c.51.42-.88,3.36-1.39,5.12,0,.33,0,.64-.03.97-.03,1.73-.06,3.48-.09,5.21-.67.15-1.33.3-2,.45-2.21.48-4.42.97-6.63,1.48-.09.03-.21.03-.3.06v.33s-.06-.03-.09-.06c.03,0,.06-.03.09-.06-.15-1.57-.3-3.09-.42-4.63h-.03c0-.27-.03-.55-.06-.82,1.97-2,4.6-3.69,5.69-6.09,1.36-3.03,3.06-3.63,5.27-1.97ZM352.51,54.34c.48-1.27,1.12-2.51,1.85-3.72,5.57,5.42,2.97,8.63-2.97,10.93-.15-1.54-.06-3.03.27-4.45.51-.88.76-1.82.85-2.76ZM330.38,75.05c.39.18.79.33,1.15.42-.45-.3-.94-.61-1.42-.91,3.63.48,5.75-1.85,8.02-3.91,1.21-1.09,2.45-2.09,4-2.54,1.79,3.72-2.06,6-2.36,9.17-.33.94-.82,1.6-1.36,2.06-1.27,1.03-2.97,1-4.78.82.06-.15.09-.27.12-.42-.12.12-.24.24-.33.39-1-1.7-2-3.39-3.03-5.09ZM287.83,146.97s.09-.06.12-.09c13.69-9.02,23.16-22.53,35.46-33.07.18-.15.33-.3.51-.45,3.24-5.66,7.9-9.05,14.66-9.05-.27-2.88-5.24-5.72-.64-8.48,3.51-2.12,4.33,2.51,6.51,3.82h.03v.03c-.06,1.91,1,4.27-2.03,4.94.03-.12,0-.24,0-.36-.03,0-.03-.03-.06-.03.03.15.03.27.03.39-5.18,6-10.36,11.99-15.5,17.96-16.78,13.44-31.37,29.07-45.51,45.15-15.62,6.93-23.74,22.47-35.12,33.79-6.24,6.21-19.8,8.05-19.29,20.86-3,1.09-6,2.18-8.99,3.27v.15c-.42,6.96-4.81,8.39-10.05,8.66-.61.03-1.27.06-1.91.06.67-1.76,1.33-3.51,2.03-5.27.27.06.55.15.82.3-.12-.3-.33-.61-.58-.94,2.79-2.73,4.18-7.99,9.87-5.33.82-8.87,7.45-14.29,13.66-18.38,6.09-4.03,9.87-9.17,13.69-14.78,1.45.39,2.66.45,3.66.3,5.06-.79,5.69-7.39,8.69-10.39,10.54-10.48,20.05-21.95,29.95-33.07ZM250.08,155.38c2.3-1.27,4.66-1.06,7.15.64,0,.45-.03.91-.06,1.36-.51,6.27-4.03,9.6-10.02,10.48-.55.09-1.15.15-1.76.18-1.79-4.6,2.15-7.69,3.09-11.57.55-.45,1.06-.82,1.6-1.09ZM70.4,146.84c-4.27-9.96,3.12-13.6,8.3-18.29.64-.12,1.21-.33,1.73-.58,6.45-3,6.39-13.93,14.72-14.59.51-.03,1.06-.03,1.64,0,.03-.58.06-1.18.09-1.76.06-1.21.12-2.42.21-3.63,1.39-1.09,2.82-2.15,4.21-3.24,1.48-1.12,2.94-2.27,4.39-3.39.18-.24.33-.51.51-.76,3-4.3,6.45-8.15,10.96-10.96.18-.15.39-.27.61-.39.36-.88.67-1.79.91-2.69.61-.73,1.24-1.45,1.88-2.18.24-.27.45-.55.7-.82.64-.03,1.27-.06,1.88-.09,1.36-.06,2.73-.12,4.09-.18-1.12,3-2.27,6.03-3.39,9.02-.39.03-.76.09-1.12.15-.45.09-.91.24-1.33.42-.91,1.91-1.79,3.82-2.66,5.72h-.03c-.39.85-.82,1.73-1.21,2.6-1.64.15-3.3.27-4.97.42-4.81,4.42-7.02,12.2-15.32,12.11,1.39,5.27-4.63,6.9-5.81,10.9-.12.33-.18.7-.21,1.09-6.51,7.33-12.26,15.41-20.74,21.11ZM88.26,161.02c-.91.12-1.88.09-2.97-.06-.55-8.72,9.69-10.08,11.63-17.08,1.73-2.09,3.42-4.15,5.15-6.24.7-.7,1.06-1.54,1.03-2.51.51-.18,1.03-.3,1.57-.33.24-.06.48-.06.76-.06.18,0,.39,0,.58.03,2.06-2.88,4.15-5.78,6.21-8.69,5-5.97,9.96-11.93,14.93-17.9.03.03.09.09.15.12,0-.12.03-.21.03-.33,6.3-4.27,12.63-8.51,18.96-12.75-5.27,13.75-15.62,23.16-25.31,33.16-.24.12-.48.24-.73.36-4.24,2.24-5.27,6.12-5.45,10.45-.06.48-.06.97-.06,1.48-.91.09-1.79.33-2.63.7h-1.39c-1.48.03-2.97.03-4.45.03,0,.15-.03.3-.03.45-.09,1.48-.21,3-.27,4.48-.03.09-.03.18-.03.27-7.78,2.09-9.08,13.47-17.65,14.41ZM104.16,176.61c-.61-.45-1.21-.88-1.82-1.33,6.33-9.36,12.66-18.68,18.96-28.01.7.06,1.36.06,2-.03,6-.42,8.39-5.15,11.02-9.57h.03c.58-1,1.21-2,1.88-2.91,1.03-.15,2.03-.33,3.06-.48.3.12.58.24.88.3.15.09.3.15.45.18.48.18,1,.27,1.54.36-.97,2.91-1.94,5.81-2.94,8.72-.27.12-.55.21-.82.33,0,.09.06.21.09.33-11.45,10.72-22.89,21.41-34.34,32.1ZM128.41,177.73c7.09-8.96,17.11-15.35,23.07-25.4.39-.61.76-1.24,1.09-1.91,8.84-.76,10.54-13.14,20.26-12.48,1.3-2.24,2.6-4.51,3.94-6.72-.03-.03,0-.06,0-.06.39-.67.79-1.33,1.18-2-.85,4.12,10.75,10.11-1.88,12.51-2.3,2.69-4.6,5.42-6.9,8.11-.03.03-.06.03-.09.06-11.93,8.02-20.08,19.89-29.95,29.98-6.09,2.24-9.3,7.36-12.87,12.14-.82,1.09-1.64,2.15-2.51,3.18-9.36-8.63.94-12.72,4.66-17.41ZM148.52,202.2c-1.82,2.66-4.51,9.9-9.54,2.18-.03-1.54.27-2.88.82-4.09,2.3-5.57,9.17-8.24,10.96-14.17,0-.09-.03-.21-.03-.3.06.06.12.12.15.21,10.11-10.08,23.07-17.5,29.92-30.61.42-.76.79-1.54,1.15-2.36,4.24-.45,5.33-7.42,10.93-5.6-1.33,12.44-10.96,18.59-18.35,26.4-8.81,9.3-18.68,17.62-26.01,28.34ZM120.09,285.01c6.48-3.94,11.17-9.9,16.41-15.23.61-.64,1.21-1.24,1.85-1.85,7.48-7.02,14.96-14.05,22.41-21.07.12.06.24.09.33.09-.06-.09-.09-.18-.15-.27.97-.94,1.91-1.88,2.85-2.82.15-.03.3-.03.45-.06.3-.06.58-.09.88-.15.42-.06.85-.15,1.3-.21.3-3.6,5.48-3.91,5.93-7.39h.03c.03-.39.03-.85-.06-1.36.18-.94.33-1.82.48-2.73v-.06h.03v-.06l-.09-.09s0,.09.03.12c-.12-.09-.21-.21-.3-.3.03.03.09.09.18.12h.03s.03.06.06.06.06.03.09.03h.24c8.45-4.27,12.08-15.99,23.65-15.41,3.27-12.75,12.78-21.01,21.35-29.95.61-.09,1.18-.21,1.76-.36,2.33-.61,4.21-1.73,4.6-4.63,0-.09.03-.21.03-.3,5.33-2.73,7.15-10.63,14.75-10.02.09,1.18,0,2.27-.24,3.24h-.03c-1.27,5.36-6.78,8.15-8.78,12.38-2.36,5.03-18.99,2.42-8.42,14.38.88,1-2.79,3.94-5.54,2.36-4.69-2.69-8.21,2.45-7.99,3.6,1.91,9.36-4.69,7.87-9.3,8.78-.7.15-1.36.36-1.94.64.06.48.09.97.03,1.39-.09,2.63-1.39,4.75-3.63,6.39-.67.76-1.33,1.48-2.03,2.24v.03c-3.27,3.63-6.51,7.27-9.78,10.87-2.09,1.27-4.36,2.39-5.21,4.72-.21.48-.33,1.03-.36,1.67-1.94,4.24-5.9,3.03-9.27,3.42-8.9,19.14-27.52,29.34-41.15,44.12-2.91,3.18-9.17,2.69-7.39-5.21.67-.33,1.3-.7,1.91-1.12ZM114.63,294.94c2.06-.45,4.42.27,3.15,3.03-1.09,2.45-1.64,5.78-4.57,6.36-4.03-.42-4.27-3.18-4.57-5.57-.67-5.12,3.63-3.3,6-3.82ZM54.5,357.95c.58.15,1.06.36,1.45.61.64.3,1.09.76,1.36,1.24.85,1.3.7,3.03.24,4.91-3.27-.12-7.63,1.36-8.36-3.45-.55-3.51,3.48-2.21,5.3-3.3ZM39.63,410.97c-1.33-1.18-2.66-2.36-4-3.54,6.39-24.25,29.92-35.79,43.75-54.53.15,0,.3.03.45.03.03-.12.03-.24.03-.36,3.54-2.48,7.87-3.94,10.48-7.6.09.03.15.09.24.12.15,0,.33-.03.48-.06.03-.42.06-.85.06-1.3,30.34-29.28,60.65-58.56,90.99-87.84-.58-4.24,6.15-1.91,5.57-6.15.48-.12.94-.3,1.36-.51,6.93-3.15,7.66-13.9,16.84-14.32.03,0,.06.03.09.03.24.39.48.76.67,1.12,1.09,2,1.36,3.97.21,5.93-.27.55-.7,1.09-1.21,1.64-8.51,2.27-10.33,12.11-17.77,15.56-18.77,22.74-42.3,40.67-62.71,61.71-17.29,17.77-37.06,33.19-51.51,53.63-.55.73-1.06,1.45-1.54,2.18-10.84,11.42-21.65,22.86-32.49,34.28ZM121.75,384.84c-.55-2.82-1.51-5.84,2.18-7.42,1.7-.73,2.91.09,3.18,1.85.67,4.18-2.48,4.75-5.36,5.57ZM106.01,407.31c-.45-.33-.97-.6-1.42-.94,0-.05,0-.09,0-.14,0,0,.01.01.02.02.45.3.94.61,1.39.91v.15ZM84.81,422.3c.08-.38.26-.69.47-.97-.03.37-.09.75-.17,1.15-.09-.06-.21-.12-.3-.18ZM84.29,437.07c-2.97.09-2.42-2.36-2.54-4.09-.15-2.54.45-5.27,3.72-4.36,1.91.55,3.33,2.79,4.81,4.12-1.36,3.21-3.48,4.24-6,4.33ZM126.81,409.28c-1.33-.61-2.76-1.21-3.91-1.91-1.76-1.03-2.79-2.33-1.42-4.33.48-.76,1.33-1.64,2.66-2.63,5.06,1.7,3,5.57,2.66,8.87ZM82.81,395.74c-3.06,3.03-4.84,7.36-7.21,11.08-.51.42-1,.82-1.51,1.21-5.24,4.3-10.63,8.45-15.56,13.05-2.3,2.15-2.97,7.63-7.39,4.12-5.21-4.12.27-6.84,2.57-9.54,9.3-10.9,18.77-21.65,28.19-32.43.48-.12,1.03-.15,1.57-.21,1.09-.09,2.21-.21,2.73-.79,27.55-32.22,59.17-60.44,89.26-90.11.58-.67,1.15-1.39,1.7-2.12,3.42-4.57,6.27-9.84,13.26-10.08,5.57-14.26,19.47-21.26,29.13-31.94,3-3.33,6-9.96,12.6-10.11-.06.06-.12.15-.18.21-.27.85-.61,1.64-.97,2.39.64-.85,1.21-1.73,1.79-2.63,1.54,3.42,5.06,4.87-.88,9.9-10.81,9.2-22.53,18.35-29.31,31.61-1.85,1.21-3.45,2.97-5.48,3.66,0,0,0,.03-.03.03-.94.36-2,.48-3.24.21-.06.27-.12.55-.15.82-.03.15-.03.33-.06.51-.03.36-.06.76-.06,1.12-2.3,1.76-5.09,3.06-5.36,6.48-.51,1.33-1.3,2.06-2.27,2.48-.91.39-2,.55-3.03.67-.36.06-.73.12-1.09.18-3.66,5.45-8.6,10.14-9.99,16.93-8.66-2.63-8.36,5.51-11.51,9.54-3.91,3.06-7.84,6.12-11.78,9.14-.09.06-.15.12-.24.18-21.86,21.44-43.81,42.82-65.49,64.44ZM140.49,389.57c-1.21-5.27,4.54-6.03,5.33-9.45.09.18.18.33.27.45.12.39.39.73.97.94-.03-.12-.09-.24-.09-.36.39,0,.79-.27,1.24-.82-.48,4.51-1.51,8.57-7.72,9.24ZM272.09,346.66c.09-1.27.21-2.57.33-3.85.06-.64.09-1.27.15-1.91,1.51-.03,2.91-.27,4.12-.79,2.09-.85,3.72-2.39,4.75-4.81.09-.15.15-.33.21-.48,3.63-1.94,6.27-4.54,6.09-9.05.7-.33,1.39-.7,2.06-1.09,12.96-7.02,21.41-18.89,30.89-29.64h.03c.79-.97,1.64-1.94,2.51-2.88,2.24-3.6,4.78-6.72,9.69-6,.82.73,1.67,1.42,2.51,2.18.27.24.58.48.88.76-10.05,11.05-20.11,22.1-30.16,33.19-4.45,4.94-11.72,7.45-13.05,15.08-.33-.06-.7-.12-1.03-.12.09.24.21.48.3.73-5.87,4.94-12.08,9.05-20.29,8.69ZM294.31,361.92c-1.21-6.15-1.33-11.51,4.39-15.17.33-.21.67-.39,1.03-.61,15.81-11.08,27.89-26.19,42.15-39,2.76-1.73,5.48-3.42,8.24-5.18.3-.18.64-.36.94-.58.03.09.06.18.09.27v.03c.7,2,.42,3.39-.27,4.45-1.3,1.82-3.97,2.73-5.69,4.27-2.06,2.97-4.12,5.93-6.15,8.87-.91.91-1.82,1.82-2.73,2.73-4.12,4.18-8.27,8.36-12.41,12.51-1.85,4.18-4.75,7.3-9.14,8.9-1.79,1.82-3.63,3.66-5.42,5.48h-.03c-.21.24-.42.45-.67.7-5.72,2.63-5.75,11.54-14.32,12.32ZM338.16,406.77c-4.78-5.72,5.78-7.06,7.45-11.72-1.64-5.18,1.91-7.27,5.57-9.3.51.27,1.06.51,1.57.67,1.15.36,2.27.42,3.42.03-.09.09-.15.18-.21.3.18-.06.36-.18.55-.27-.27.21-.48.36-.7.61h-.03c-2.06,4.06,1.27,10.11-2.79,13.47-.48.39-1.09.76-1.82,1.09-1-.15-2-.3-3-.45-2.88,3.09-5.09,11.51-10.02,5.57ZM402.78,419.45c-.33,5-1.85,9.42-6.18,12.48-.61-.06-1.18-.12-1.79-.18-1.15-.09-2.3-.21-3.45-.3-1.24-.12-2.48-.24-3.72-.36,2.76-5.87,6.75-10.26,13.08-11.6.58-.12,1.18-.21,1.79-.3.03-.51.06-1.06.09-1.57.06-1.18.09-2.33.15-3.48.12.06.27.12.39.18.09.09.18.15.27.21-.15-.3-.39-.64-.64-.94,3.21,1.33,5.93-12.51,9.51-.33-.27,0-.55.03-.79.09.09.18.18.39.27.61t.06.03c-2.06,3.36-4.63,5.87-9.05,5.48ZM416.4,412.15c-.18.15-.33.33-.48.48-3.15-7.66,1.7-11.23,7.42-14.32.12,2.03-.18,3.78-.79,5.42-1.21,3.21-3.63,5.81-6.12,8.36,0,.03-.03.06-.03.06Z"/>
        <path class="cls-1" d="M449.08,117.12c.14-.3-1.69,1.69-1.41,3.32,1.54,8.93,9.32,12.04,16,16.07,2.39,1.44,3.55-.17,4.4-2.12.18-.42.36-1.21.16-1.38-5.86-4.92-11.76-9.79-19.15-15.88Z"/>
        <path class="cls-1" d="M168.24,391.59c6.86,11.64,14.32,17.56,24.04,21.37-5.85-7.63-10.84-16.8-24.04-21.37Z"/>
        <path class="cls-1" d="M342.32,225.64q2.77,11.04,18.98,20.23c-3.9-10.03-9.16-16.67-18.98-20.23Z"/>
        <path class="cls-1" d="M206.56,401.29c-7.14-7.66-12.84-13.78-18.54-19.9-.11,12.32,6.91,17.15,18.54,19.9Z"/>
        <path class="cls-1" d="M403.71,195.06c.43.1,1.4-2.09,2.77-4.25-7.99-1.79-7.67-11.68-15.1-13.43-3.05-.72-5.15,2.21-3.02,4.52,4.56,4.96,8.04,11.45,15.35,13.15Z"/>
        <path class="cls-1" d="M330.86,239.23c3.07,7.34,7.17,13.59,17.58,13.31-4.82-5.2-9.64-10.41-14.46-15.61-1.04.77-2.08,1.53-3.13,2.3Z"/>
        <path class="cls-1" d="M432.33,175.62c-2.77-11.13-8.5-16.69-19.6-20.01,5.08,9.47,10.83,15.01,19.6,20.01Z"/>
        <path class="cls-1" d="M385.6,194.47c-2.8-6.59-8.52-8.29-8.92-1.37-.33,5.83,8.28,11.17,16.44,13.18-2.55-3.92-5.72-7.57-7.52-11.81Z"/>
        <path class="cls-1" d="M128.74,443.55c-1.65-.3-4.65.04-4.12,2.7,1.42,7.22,8.33,8.77,14.72,13-1.59-7.63-2.32-14.19-10.6-15.7Z"/>
        <path class="cls-1" d="M364.95,231.14c.28.33.89.39,1.34.58,2.1,3.27,3.29,7.82,8.95,6.58-.27-4.98-5.05-6.18-6.95-9.52-2.33-5.87-5.14-11.28-11.44-13.95-2.3-.97-2.52.78-2.62,1.92-.68,7.9,6.82,9.83,10.72,14.4Z"/>
        <path class="cls-1" d="M155.7,422.68c-.41-.37-3.54,1.07-3.53,1.63.16,6.81,6.32,8.87,10.87,13.83,1.55-9.04-3.48-11.99-7.34-15.47Z"/>
        <path class="cls-1" d="M133.05,430.09c5.38,8.47,9.12,12.69,15.44,16.75.44-9.9-3.81-13.67-15.44-16.75Z"/>
        <path class="cls-1" d="M433.17,442.29c5.25,4.69,8.77,11.99,17.52,11.63-5.1-4.91-9.18-11.07-17.52-11.63Z"/>
        <path class="cls-1" d="M239.57,348.63c-3.71-2.56-6.56-11.7-10.85-6.93-6.03,6.71,6.82,3.92,7.45,9.11.2,1.68,3.09,3.04,4.75,4.55.67-.71,1.33-1.41,2-2.12-1.1-1.57-1.87-3.6-3.35-4.61Z"/>
        <path class="cls-1" d="M217.42,350.28c1.97,6.89,5.78,9.91,12.46,12.18-1.01-8.37-4.27-12-12.46-12.18Z"/>
        <path class="cls-1" d="M471.96,409.87c-1.87-.1-2.89,1.35-2.36,2.66,2.44,6.01,10.55,3.62,14.13,8.35-1.6-6.46-5.06-10.65-11.77-11.01Z"/>
        <path class="cls-1" d="M116.69,455.77c-.4-.04-1.48,1.54-1.37,2.23.93,6.1,5.54,7.95,13.14,10.75-2.95-8.17-5.74-12.31-11.77-12.99Z"/>
        <path class="cls-1" d="M454.12,149.81c3.78-3.77-2.21-6.82-5.51-9.2-1.13-1.61-2.47-3.12-3.34-4.86-1.79-3.59-4.12-8.77-8.18-6.22-4.2,2.64-.72,7.08,2.16,10,1.72,1.75,3.71,3.24,5.58,4.84,2.7,2.81,5.21,9.5,9.29,5.43Z"/>
        <path class="cls-1" d="M419.14,186.02c2.06-9.49-6.81-8.4-10.37-12.04-.71-3.3,2.08-8.34-4.24-8.84-1.76-.14-4.07-.41-4.59,2.14-.86,4.22,2.45,5.87,5.16,7.81,1.14.81,2.36,1.5,3.55,2.24,2.1,4.38,4.52,8.34,10.49,8.69Z"/>
        <path class="cls-1" d="M107.22,465.24c-.5-.25-3.13,1.8-3.06,2.65.42,5.47,4.47,7.34,11.69,9.94-2.28-7.1-4.61-10.57-8.63-12.59Z"/>
        <path class="cls-1" d="M454.87,437.03c-2.32,9.49,5.17,8.84,12.53,11.93-3.44-7.28-6.84-10.9-12.53-11.93Z"/>
        <path class="cls-1" d="M161.54,410.7c1.69,4.72,4.51,7.86,9.81,7.32.64-.06,1.74-2.77,1.41-3.88-1.91-6.33-6.58-4.69-11.22-3.43Z"/>
        <path class="cls-1" d="M458.01,109.58c-.22,5.27,5.17,4.77,7.84,7.16,3.5,5.17,6.57,11.17,14.89,7.77-2.46-4.75-5.59-8.09-11.2-8-3.4-2.34-1.49-9.6-8.1-8.85-1.25.14-3.4,1.21-3.43,1.92Z"/>
        <path class="cls-1" d="M208.38,361.81c1.45,6.84,4.24,9.9,12.47,9.51-3.35-5.19-4.77-9.82-12.47-9.51Z"/>
        <path class="cls-1" d="M427.99,455.7c-2.7,6.7,3.1,8.18,6.56,10.88.17.13,2.96-1.96,2.87-2.85-.52-5.38-5.68-5.72-9.43-8.03Z"/>
        <path class="cls-1" d="M444.66,162.34c-1.59-5.07-5.01-7.46-8.59-9.7-1.02-1.61-2.13-3.16-3.03-4.83-1.59-2.95-1.87-8.46-7.27-4.19-4.24,3.35-1.11,5.78,1.7,7.93,1.91,1.47,3.87,2.86,5.81,4.29h0c2.87,3.14,5.67,6.41,11.38,6.51Z"/>
        <path class="cls-1" d="M376.35,213.08c-1.08-6.97-4.51-10.33-13.15-7.44,3.19,2.99,5.89,5.53,8.59,8.07,0,0,0,0,0,0,2.37,3.14,4.74,6.27,7.87,10.41,2.4-6.84,2.92-10.58-3.31-11.04Z"/>
        <path class="cls-1" d="M455.77,422.21c1.58,2.08.64,6.47,5.03,5.94,2.48-.3,3.07-2.51,2.02-4.32-1.1-1.91-3.01-3.35-4.58-5.02-1.62,1.49-4.26,1.06-2.48,3.4Z"/>
        <path class="cls-1" d="M446.27,429.72c-.29-.02-1.5,3.37-1.08,4.81,1.73,5.84,5.82,2.13,9.06,2.07-2.37-2.69-3.7-6.59-7.98-6.88Z"/>
        <path class="cls-1" d="M454.25,436.6c.11.13.22.27.34.39,0,0,.02-.02.02-.02.09.02.17.05.27.06.03-.13.05-.25.08-.38-.23-.04-.47-.05-.71-.05Z"/>
        <path class="cls-1" d="M406.88,468.94c-.18-.16-3.05,1.66-3.02,2.51.12,4.2,3.54,6.03,7.28,8.53.93-5.9-1.51-8.61-4.26-11.03Z"/>
        <path class="cls-1" d="M209.17,379.82c-3.12-4.49-6.43-8.77-11.97-11.81-1.43,8.58,3.29,11.66,8.87,14.15,2.61,2.08,5.21,4.16,8.48,6.77.55-5.85-2.39-7.5-5.38-9.11Z"/>
        <path class="cls-1" d="M422.13,474.69c-1.35,2.86,3.06,5.32,8.21,7.65-1.14-3.32-1.34-4.65-2-5.69-1.55-2.47-4.47-5.65-6.21-1.95Z"/>
        <path class="cls-1" d="M417.44,458.34c-1.23-.01-3.14.73-2.17,2.59,1.04,2,2.66,3.7,4.03,5.53.61-1.03,1.23-2.06,1.49-2.51.41-3.4-.23-5.58-3.35-5.61Z"/>
        <path class="cls-1" d="M196.97,216.49v-.12h-.24c-.03.12-.06.21-.09.33.12-.06.21-.12.33-.21Z"/>
        <path class="cls-1" d="M402.5,419.18v.27h.27c.03-.09.03-.21.03-.3-.09,0-.21.03-.3.03Z"/>
        <path class="cls-1" d="M415.46,72.14c-.06.06-.09.15-.12.21.21.06.42.12.64.21-.18-.12-.33-.27-.51-.42Z"/>
        <path class="cls-1" d="M305.82,98.73c-.03-.12-.12-.27-.18-.39,0,.03.03.09.03.12.03.09.03.15.03.21.03,0,.03.03.06.03s.03.03.06.03Z"/>
        <path class="cls-1" d="M337.4,343.78c-.12.58-.06,1.12.21,1.57-.15-.51-.21-1.06-.21-1.57Z"/>
      </g>
    </g>
  </g>
</svg>